<?xml version="1.0" encoding="UTF-8"?>
<svg id="Layer_2" data-name="Layer 2" xmlns="http://www.w3.org/2000/svg" viewBox="0 0 148.21 148.19">
  <defs>
    <style>
      .cls-1 {
        fill: none;
        stroke: #fff;
        stroke-linecap: round;
        stroke-linejoin: round;
        stroke-width: 1.13px;
      }
    </style>
  </defs>
  <g id="Layer_1-2" data-name="Layer 1">
    <g>
      <path class="cls-1" d="M21.05,73.86c0,28.43,23.05,51.49,51.49,51.49,16.45,0,31.09-7.7,40.52-19.7-10.83,15.26-28.64,25.22-48.77,25.22-32.99,0-59.74-26.75-59.74-59.74S31.3,11.4,64.29,11.4s59.75,26.74,59.75,59.74c0,.41,0,.8-.03,1.21-.8-27.73-23.54-49.97-51.47-49.97S21.05,45.43,21.05,73.86Z"/>
      <path class="cls-1" d="M127.33,70.74c0-35-28.38-63.38-63.38-63.38-20.25,0-38.26,9.48-49.88,24.25C27.4,12.82,49.33,.56,74.11,.56c40.6,0,73.53,32.93,73.53,73.53s-32.93,73.53-73.53,73.53S.56,114.72,.56,74.1c0-.5,0-.99,.03-1.49,.99,34.14,28.97,61.51,63.36,61.51s63.38-28.38,63.38-63.38Z"/>
      <polygon class="cls-1" points="59.83 54.53 69.49 70.24 52.2 99.34 33.32 99.34 59.83 54.53"/>
      <polygon class="cls-1" points="59.13 99.02 67.8 82.75 101.66 82.95 111.2 99.24 59.13 99.02"/>
      <polygon class="cls-1" points="98.53 78.07 80.12 78.92 63.01 49.71 72.14 33.19 98.53 78.07"/>
    </g>
  </g>
</svg>