<svg width="24" height="24" viewBox="0 0 24 24" fill="none" xmlns="http://www.w3.org/2000/svg">
<g clip-path="url(#clip0_1_27874)">
<line y1="-0.05" x2="33.9411" y2="-0.05" transform="matrix(-0.707107 0.707107 0.707107 0.707107 24 0)" stroke="#9B51E0" stroke-width="0.1"/>
<line x1="0.0353553" y1="-0.0353553" x2="24.0354" y2="23.9646" stroke="#9B51E0" stroke-width="0.1"/>
<circle r="10" transform="matrix(-1 0 0 1 12 12)" stroke="#9B51E0" stroke-width="0.1"/>
<rect width="18" height="18" transform="matrix(-1 0 0 1 21 3)" stroke="#9B51E0" stroke-width="0.1"/>
<rect width="20" height="16" transform="matrix(-1 0 0 1 22 4)" stroke="#9B51E0" stroke-width="0.1"/>
<rect width="20" height="16" transform="matrix(4.37114e-08 1 1 -4.37114e-08 4 2)" stroke="#9B51E0" stroke-width="0.1"/>
<circle cx="12" cy="12" r="9" stroke="white" stroke-width="2"/>
<path d="M15.5 12C15.5 13.933 13.933 15.5 12 15.5C10.067 15.5 8.5 13.933 8.5 12C8.5 10.067 10.067 8.5 12 8.5C13.933 8.5 15.5 10.067 15.5 12Z" stroke="white" stroke-width="2"/>
</g>
<defs>
<clipPath id="clip0_1_27874">
<rect width="24" height="24" fill="white"/>
</clipPath>
</defs>
</svg>
