<svg width="63" height="64" viewBox="0 0 63 64" fill="none" xmlns="http://www.w3.org/2000/svg">
<g clip-path="url(#clip0_35_15786)">
<path d="M54.8177 39.7341V24.1581C54.8177 19.2631 54.8177 16.8156 53.297 15.2949C51.7763 13.7742 49.3277 13.7742 44.4304 13.7742H18.4772C13.5799 13.7742 11.1312 13.7742 9.61054 15.2949C8.08984 16.8156 8.08984 19.2631 8.08984 24.1581V39.7341C8.08984 44.6292 8.08984 47.0767 9.61054 48.5974C11.1312 50.1181 13.5788 50.1181 18.4738 50.1181H44.4337C49.3288 50.1181 51.7763 50.1181 53.297 48.5974C54.8177 47.0767 54.8177 44.6291 54.8177 39.7341Z" stroke="white" stroke-width="5.19199"/>
<path d="M54.8178 39.7341V24.1581C54.8178 19.2631 54.8178 16.8156 53.2971 15.2949C51.7764 13.7742 49.3289 13.7742 44.4338 13.7742H31.4539V50.1181H44.4338C49.3289 50.1181 51.7764 50.1181 53.2971 48.5974C54.8178 47.0767 54.8178 44.6291 54.8178 39.7341Z" fill="white"/>
</g>
<defs>
<clipPath id="clip0_35_15786">
<rect width="62.3038" height="62.3038" fill="white" transform="translate(0.454102 0.946289)"/>
</clipPath>
</defs>
</svg>
