<svg width="100" height="100" viewBox="0 0 100 100" fill="none" xmlns="http://www.w3.org/2000/svg">
<path fill-rule="evenodd" clip-rule="evenodd" d="M62.5 75C62.5 69.8223 66.6973 65.625 71.875 65.625C77.0527 65.625 81.25 69.8223 81.25 75C81.25 80.1777 77.0527 84.375 71.875 84.375C66.6973 84.375 62.5 80.1777 62.5 75ZM75 75C75 73.2741 73.6009 71.875 71.875 71.875C70.1491 71.875 68.75 73.2741 68.75 75C68.75 76.7259 70.1491 78.125 71.875 78.125C73.6009 78.125 75 76.7259 75 75Z" fill="white"/>
<path d="M50 75C48.2741 75 46.875 73.6009 46.875 71.875C46.875 70.2724 48.0814 68.9515 49.6356 68.771L50 68.75H56.25C57.9759 68.75 59.375 70.1491 59.375 71.875C59.375 73.4776 58.1686 74.7985 56.6144 74.979L56.25 75H50Z" fill="white"/>
<path fill-rule="evenodd" clip-rule="evenodd" d="M25 75C25 69.8223 29.1973 65.625 34.375 65.625C39.5527 65.625 43.75 69.8223 43.75 75C43.75 80.1777 39.5527 84.375 34.375 84.375C29.1973 84.375 25 80.1777 25 75ZM37.5 75C37.5 73.2741 36.1009 71.875 34.375 71.875C32.6491 71.875 31.25 73.2741 31.25 75C31.25 76.7259 32.6491 78.125 34.375 78.125C36.1009 78.125 37.5 76.7259 37.5 75Z" fill="white"/>
<path d="M81.25 75V48.7673C81.25 48.2738 81.1331 47.7891 80.9112 47.3521L80.7252 47.0339L71.1303 32.6416C70.6231 31.8809 69.8127 31.386 68.918 31.2741L68.5301 31.25H62.5V25H68.5301C71.4557 25 74.2006 26.3647 75.9673 28.6671L76.3306 29.1747L85.9255 43.567C86.8238 44.9145 87.3556 46.4683 87.4745 48.0757L87.5 48.7673V68.75C87.5 72.0449 84.9504 74.7443 81.7164 74.9829L81.25 75Z" fill="white"/>
<path d="M25 71.875C21.7051 71.875 19.0057 69.3254 18.7671 66.0914L18.75 65.625V59.375H25V71.875Z" fill="white"/>
<path fill-rule="evenodd" clip-rule="evenodd" d="M18.75 15.625H56.25C61.4277 15.625 65.625 19.8223 65.625 25V53.125C65.625 58.3027 61.4277 62.5 56.25 62.5H18.75C13.5723 62.5 9.375 58.3027 9.375 53.125V25C9.375 19.8223 13.5723 15.625 18.75 15.625ZM56.25 21.875H18.75C17.0241 21.875 15.625 23.2741 15.625 25V53.125C15.625 54.8509 17.0241 56.25 18.75 56.25H56.25C57.9759 56.25 59.375 54.8509 59.375 53.125V25C59.375 23.2741 57.9759 21.875 56.25 21.875Z" fill="white"/>
</svg>
