<svg width="63" height="63" viewBox="0 0 63 63" fill="none" xmlns="http://www.w3.org/2000/svg">
<g clip-path="url(#clip0_915_21194)">
<path d="M11.7526 52.8433L13.5883 51.0077L11.7526 52.8433ZM50.2471 52.8433L48.4115 51.0077L50.2471 52.8433ZM49.1718 25.8081V43.9801H54.3638V25.8081H49.1718ZM41.3839 51.768H20.6159V56.96H41.3839V51.768ZM12.8279 43.9801V25.8081H7.63594V43.9801H12.8279ZM20.6159 51.768C18.095 51.768 16.4655 51.7625 15.2648 51.6011C14.1388 51.4497 13.7859 51.2053 13.5883 51.0077L9.91699 54.679C11.2401 56.0021 12.8713 56.518 14.573 56.7468C16.2 56.9655 18.2418 56.96 20.6159 56.96V51.768ZM7.63594 43.9801C7.63594 46.3542 7.63043 48.3959 7.84918 50.023C8.07797 51.7247 8.59391 53.3559 9.91699 54.679L13.5883 51.0077C13.3907 50.8101 13.1462 50.4572 12.9949 49.3312C12.8334 48.1305 12.8279 46.501 12.8279 43.9801H7.63594ZM49.1718 43.9801C49.1718 46.501 49.1663 48.1305 49.0049 49.3312C48.8535 50.4572 48.6091 50.8101 48.4115 51.0077L52.0828 54.679C53.4058 53.3559 53.9218 51.7247 54.1506 50.023C54.3693 48.3959 54.3638 46.3542 54.3638 43.9801H49.1718ZM41.3839 56.96C43.758 56.96 45.7997 56.9655 47.4268 56.7468C49.1285 56.518 50.7597 56.0021 52.0828 54.679L48.4115 51.0077C48.2139 51.2053 47.8609 51.4497 46.735 51.6011C45.5343 51.7625 43.9048 51.768 41.3839 51.768V56.96Z" fill="white"/>
<path d="M7.78809 28.556L23.8095 12.5346C27.2708 9.07327 29.0014 7.34261 31.152 7.34261C33.3026 7.34261 35.0333 9.07327 38.4946 12.5346L54.516 28.556" stroke="white" stroke-width="5.19199" stroke-linecap="round"/>
<path d="M23.364 44.1319C23.364 41.7127 23.364 40.5031 23.7592 39.549C24.2862 38.2768 25.2969 37.266 26.5691 36.7391C27.5232 36.3439 28.7328 36.3439 31.152 36.3439C33.5712 36.3439 34.7807 36.3439 35.7349 36.7391C37.0071 37.266 38.0178 38.2768 38.5448 39.549C38.94 40.5031 38.94 41.7127 38.94 44.1319V54.5158H23.364V44.1319Z" fill="white"/>
<path d="M41.5359 11.682C41.5359 10.4724 41.5359 9.86758 41.7335 9.39051C41.997 8.75442 42.5023 8.24905 43.1384 7.98557C43.6155 7.78796 44.2203 7.78796 45.4299 7.78796C46.6395 7.78796 47.2442 7.78796 47.7213 7.98557C48.3574 8.24905 48.8628 8.75442 49.1263 9.39051C49.3239 9.86758 49.3239 10.4724 49.3239 11.682V25.9599L41.5359 16.8739V11.682Z" fill="white"/>
</g>
<defs>
<clipPath id="clip0_915_21194">
<rect width="62.3038" height="62.3038" fill="white"/>
</clipPath>
</defs>
</svg>
