<svg width="370" height="61" class="" viewBox="0 0 370 61" fill="#000" xmlns="http://www.w3.org/2000/svg">
<path d="M25.083 0.867188H30.9028L55.8389 60H47.0029L41.0132 45.1318H14.7603L8.81299 60H0.146973L25.083 0.867188ZM38.2944 38.335L27.9292 12.4219L17.5215 38.335H38.2944ZM64.25 0.867188H81.0298C92.2163 0.867188 99.4238 4.18066 102.652 10.8076C103.813 13.2432 104.394 15.9902 104.394 19.0488C104.394 22.0791 103.983 24.6421 103.162 26.7378C102.369 28.8335 101.25 30.6318 99.8062 32.1328C97.0308 35.0215 93.2075 36.9189 88.3364 37.8252C90.3472 44.0273 93.7598 48.3037 98.5742 50.6543C100.16 51.4473 101.491 51.8721 102.567 51.9287C104.38 51.9854 105.654 51.9287 106.391 51.7588V60H104.479C98.1069 60 92.6836 57.7344 88.209 53.2031C84.2725 49.2666 81.6245 44.3105 80.2651 38.335H72.7461V60H64.25V0.867188ZM80.4775 31.5381C85.6035 31.5381 89.3984 30.5469 91.8623 28.5645C94.3262 26.582 95.5581 23.4951 95.5581 19.3037C95.5581 13.7246 92.9668 10.1279 87.7842 8.51367C85.9717 7.94727 83.7769 7.66406 81.1997 7.66406H72.7461V31.5381H80.4775ZM133.918 0.867188H139.738L164.674 60H155.838L149.848 45.1318H123.595L117.648 60H108.982L133.918 0.867188ZM147.129 38.335L136.764 12.4219L126.356 38.335H147.129ZM206.092 55.8794C204.082 57.2954 201.504 58.4141 198.361 59.2354C195.217 60.0283 191.366 60.4248 186.806 60.4248C182.275 60.4248 177.701 60.1558 173.085 59.6177V51.3765C177.22 52.311 181.383 52.7783 185.574 52.7783C189.766 52.7783 192.909 52.5518 195.005 52.0986C197.101 51.6172 198.786 50.9941 200.06 50.2295C202.411 48.8135 203.586 46.9727 203.586 44.707C203.586 42.9512 203.133 41.5918 202.227 40.6289C200.782 39.1279 198.701 37.7544 195.982 36.5083L185.107 31.5381C181.369 29.7822 178.721 28.1538 177.163 26.6528C173.821 23.4243 172.15 19.686 172.15 15.438C172.15 11.0767 174.048 7.55078 177.843 4.86035C182.006 1.91504 187.925 0.442383 195.6 0.442383C200.556 0.442383 205.087 0.640625 209.193 1.03711V9.15088C205.71 8.35791 201.816 7.96143 197.511 7.96143C193.235 7.96143 190.12 8.18799 188.166 8.64111C186.24 9.06592 184.725 9.61816 183.62 10.2979C181.609 11.5439 180.604 13.1865 180.604 15.2256C180.604 17.208 181.241 18.8506 182.516 20.1533C183.648 21.2578 185.716 22.5322 188.718 23.9766L199.89 29.2866C203.6 31.0425 206.191 32.6992 207.664 34.2568C209.165 35.8145 210.27 37.3862 210.978 38.9722C211.686 40.5298 212.04 42.4131 212.04 44.6221C212.04 46.8027 211.558 48.8701 210.595 50.8242C209.632 52.75 208.131 54.4351 206.092 55.8794ZM237.698 8.34375H219.898V0.867188H263.993V8.34375H246.194V60H237.698V8.34375ZM274.019 0.867188H312.208V8.25879H282.515V25.6758H304.987V32.8125H282.515V52.5234H312.208V60H274.019V0.867188ZM324.825 0.867188H333.321V24.2314H361.273V0.867188H369.77V60H361.273V31.708H333.321V60H324.825V0.867188Z" fill="#000"/>
</svg>
