<svg width="100" height="100" viewBox="0 0 100 100" fill="none" xmlns="http://www.w3.org/2000/svg">
<path fill-rule="evenodd" clip-rule="evenodd" d="M50 12.5C70.7107 12.5 87.5 29.2893 87.5 50C87.5 70.7107 70.7107 87.5 50 87.5C29.2893 87.5 12.5 70.7107 12.5 50C12.5 29.2893 29.2893 12.5 50 12.5Z" stroke="white" stroke-width="5" stroke-linecap="round" stroke-linejoin="round"/>
<path d="M37.5 59.375C37.5 65.625 43.75 68.75 50 68.75C56.25 68.75 62.5 65.625 62.5 59.375C62.5 56.25 59.375 53.125 50 50C40.625 46.875 37.5 43.7385 37.5 40.625C37.5 34.375 43.75 31.25 50 31.25C56.25 31.25 62.5 34.375 62.5 40.625" stroke="white" stroke-width="5" stroke-linecap="round" stroke-linejoin="round"/>
<path d="M50 28.125V71.875" stroke="white" stroke-width="5" stroke-linecap="round" stroke-linejoin="round"/>
</svg>
