<?xml version="1.0" standalone="no"?>
<svg xmlns:xlink="http://www.w3.org/1999/xlink" id="wave" style="transform:rotate(0deg); transition: 0.3s" viewBox="0 0 1440 150" version="1.1" xmlns="http://www.w3.org/2000/svg"><defs><linearGradient id="sw-gradient-0" x1="0" x2="0" y1="1" y2="0"><stop stop-color="rgba(16, 42, 67, 1)" offset="0%"/><stop stop-color="rgba(16, 42, 67, 1)" offset="100%"/></linearGradient></defs><path style="transform:translate(0, 0px); opacity:1" fill="url(#sw-gradient-0)" d="M0,105L30,100C60,95,120,85,180,67.5C240,50,300,25,360,12.5C420,0,480,0,540,7.5C600,15,660,30,720,32.5C780,35,840,25,900,30C960,35,1020,55,1080,57.5C1140,60,1200,45,1260,55C1320,65,1380,100,1440,115C1500,130,1560,125,1620,122.5C1680,120,1740,120,1800,102.5C1860,85,1920,50,1980,37.5C2040,25,2100,35,2160,50C2220,65,2280,85,2340,92.5C2400,100,2460,95,2520,90C2580,85,2640,80,2700,65C2760,50,2820,25,2880,15C2940,5,3000,10,3060,25C3120,40,3180,65,3240,77.5C3300,90,3360,90,3420,90C3480,90,3540,90,3600,95C3660,100,3720,110,3780,95C3840,80,3900,40,3960,37.5C4020,35,4080,70,4140,70C4200,70,4260,35,4290,17.5L4320,0L4320,150L4290,150C4260,150,4200,150,4140,150C4080,150,4020,150,3960,150C3900,150,3840,150,3780,150C3720,150,3660,150,3600,150C3540,150,3480,150,3420,150C3360,150,3300,150,3240,150C3180,150,3120,150,3060,150C3000,150,2940,150,2880,150C2820,150,2760,150,2700,150C2640,150,2580,150,2520,150C2460,150,2400,150,2340,150C2280,150,2220,150,2160,150C2100,150,2040,150,1980,150C1920,150,1860,150,1800,150C1740,150,1680,150,1620,150C1560,150,1500,150,1440,150C1380,150,1320,150,1260,150C1200,150,1140,150,1080,150C1020,150,960,150,900,150C840,150,780,150,720,150C660,150,600,150,540,150C480,150,420,150,360,150C300,150,240,150,180,150C120,150,60,150,30,150L0,150Z"/></svg>