<svg width="63" height="63" viewBox="0 0 63 63" fill="none" xmlns="http://www.w3.org/2000/svg">
<g clip-path="url(#clip0_915_21160)">
<path d="M46.5591 50.6218C35.1366 62.0443 0.25953 27.1672 11.682 15.7447L17.8034 9.62307C18.73 8.69645 20.2825 8.8964 20.9441 10.0276L25.4348 17.7059C25.8236 18.3707 25.7961 19.1998 25.3641 19.8374L22.1858 24.5284C21.7824 25.1239 21.8584 25.9219 22.367 26.4305L29.1201 33.1837L35.8738 39.9365C36.3824 40.4451 37.1803 40.521 37.7757 40.1176L42.466 36.9399C43.1036 36.5079 43.9326 36.4804 44.5974 36.8692L52.276 41.3597C53.4072 42.0212 53.6072 43.5737 52.6806 44.5003L46.5591 50.6218Z" stroke="white" stroke-width="5.19199" stroke-linecap="round" stroke-linejoin="round"/>
</g>
<defs>
<clipPath id="clip0_915_21160">
<rect width="62.3038" height="62.3038" fill="white"/>
</clipPath>
</defs>
</svg>
