<svg width="63" height="63" viewBox="0 0 63 63" fill="none" xmlns="http://www.w3.org/2000/svg">
<g clip-path="url(#clip0_915_21121)">
<path d="M54.3637 54.3637V53.1955C54.3637 50.6602 54.3637 49.3925 54.0713 48.3558C53.3358 45.7478 51.2977 43.7097 48.6897 42.9742C47.653 42.6818 46.3853 42.6818 43.85 42.6818H32.4276C29.8923 42.6818 28.6246 42.6818 27.5878 42.9742C24.9799 43.7097 22.9417 45.7478 22.2062 48.3558C21.9138 49.3925 21.9138 50.6602 21.9138 53.1955V54.3637" stroke="white" stroke-width="5.19199" stroke-linecap="round" stroke-linejoin="round"/>
<path d="M7.63574 45.2781V34.9001C7.63574 34.0634 7.63574 33.645 7.71863 33.2998C7.98199 32.2028 8.83846 31.3464 9.93541 31.083C10.2807 31.0001 10.699 31.0001 11.5357 31.0001H18.0197" stroke="white" stroke-width="5.19199" stroke-linecap="round" stroke-linejoin="round"/>
<path d="M48.0257 24.6619C48.0257 29.6799 43.9578 33.7479 38.9397 33.7479C33.9217 33.7479 29.8538 29.6799 29.8538 24.6619C29.8538 19.6439 33.9217 15.5759 38.9397 15.5759C43.9578 15.5759 48.0257 19.6439 48.0257 24.6619Z" stroke="white" stroke-width="5.19199"/>
<path d="M28.5557 11.3714C27.0336 9.21149 24.4309 7.78796 21.4757 7.78796C16.7835 7.78796 12.9797 11.3769 12.9797 15.804C12.9797 19.2942 15.3439 22.2635 18.6437 23.3639" stroke="white" stroke-width="5.19199" stroke-linecap="round"/>
</g>
<defs>
<clipPath id="clip0_915_21121">
<rect width="62.3038" height="62.3038" fill="white"/>
</clipPath>
</defs>
</svg>
