<svg width="63" height="63" viewBox="0 0 63 63" fill="none" xmlns="http://www.w3.org/2000/svg">
<g clip-path="url(#clip0_915_21098)">
<g clip-path="url(#clip1_915_21098)">
<path d="M50.622 44.1317H23.8691C21.7682 44.1317 20.7177 44.1317 19.9914 43.5164C19.2652 42.901 19.0926 41.8648 18.7476 39.7924L15.0005 17.2854C14.6555 15.213 14.483 14.1768 13.7567 13.5614C13.0304 12.9461 11.98 12.9461 9.87901 12.9461H7.78809M15.2052 18.1718L50.8643 18.1502C53.151 18.1488 54.2943 18.1481 54.8951 18.8907C55.496 19.6332 55.2567 20.7512 54.7782 22.9872L52.5968 33.1808C52.2725 34.6963 52.1104 35.4541 51.5602 35.8989C51.0101 36.3437 50.2352 36.3437 48.6854 36.3437H18.1735" stroke="white" stroke-width="5.19199" stroke-linecap="round" stroke-linejoin="round"/>
<path d="M51.9199 53.2178C51.9199 55.3684 50.1765 57.1118 48.0259 57.1118C45.8753 57.1118 44.1319 55.3684 44.1319 53.2178C44.1319 51.0673 45.8753 49.3239 48.0259 49.3239C50.1765 49.3239 51.9199 51.0673 51.9199 53.2178Z" fill="white"/>
<path d="M27.2579 53.2178C27.2579 55.3684 25.5146 57.1118 23.364 57.1118C21.2134 57.1118 19.47 55.3684 19.47 53.2178C19.47 51.0673 21.2134 49.3239 23.364 49.3239C25.5146 49.3239 27.2579 51.0673 27.2579 53.2178Z" fill="white"/>
</g>
<path d="M33.5958 7.63623C26.5944 7.63623 21.9051 8.40697 20.122 12.918C19.3763 14.8045 19.0035 15.7478 19.7762 16.884C20.5488 18.0202 21.8692 18.0202 24.5099 18.0202H42.6818C45.3225 18.0202 46.6429 18.0202 47.4155 16.884C48.1882 15.7478 47.8153 14.8045 47.0697 12.918C45.2866 8.40697 40.5973 7.63623 33.5958 7.63623Z" stroke="white" stroke-width="5.19199" stroke-linecap="round" stroke-linejoin="round"/>
</g>
<defs>
<clipPath id="clip0_915_21098">
<rect width="62.3038" height="62.3038" fill="white"/>
</clipPath>
<clipPath id="clip1_915_21098">
<rect width="62.3038" height="62.3038" fill="white"/>
</clipPath>
</defs>
</svg>
