<svg width="63" height="63" viewBox="0 0 63 63" fill="none" xmlns="http://www.w3.org/2000/svg">
<g clip-path="url(#clip0_957_21170)">
<path d="M19.0203 46.9021L21.1159 45.3699L19.0203 46.9021ZM22.0792 48.9047L21.513 51.4382L22.0792 48.9047ZM43.7373 16.5953L41.2624 17.3789L43.7373 16.5953ZM38.2443 12.999L38.5159 15.5808L38.2443 12.999ZM19.2917 22.3931L21.4637 23.815L19.2917 22.3931ZM20.6155 38.7863V36.6641H15.4235V38.7863H20.6155ZM20.6155 36.6641V31.7577H15.4235V36.6641H20.6155ZM28.4042 19.861L35.5004 16.7645L33.4239 12.0059L26.3277 15.1024L28.4042 19.861ZM15.4235 38.7863C15.4235 40.982 15.4207 42.8173 15.5606 44.2671C15.7011 45.7223 16.0125 47.1866 16.9247 48.4342L21.1159 45.3699C21.0274 45.2488 20.8383 44.9042 20.7286 43.7681C20.6184 42.6268 20.6155 41.0886 20.6155 38.7863H15.4235ZM28.8796 44.1968C26.7695 45.1175 25.3585 45.7301 24.2683 46.0856C23.1832 46.4394 22.7918 46.4039 22.6453 46.3712L21.513 51.4382C23.0214 51.7753 24.488 51.475 25.8778 51.0218C27.2627 50.5702 28.9436 49.8336 30.9561 48.9554L28.8796 44.1968ZM16.9247 48.4342C18.0393 49.9588 19.6699 51.0263 21.513 51.4382L22.6453 46.3712C22.031 46.2339 21.4874 45.8781 21.1159 45.3699L16.9247 48.4342ZM46.5755 20.6161C46.5755 19.5563 46.5761 18.6698 46.5423 17.9556C46.5085 17.2442 46.4352 16.516 46.2122 15.8116L41.2624 17.3789C41.2815 17.4394 41.3293 17.6364 41.3561 18.2016C41.3828 18.7638 41.3835 19.5054 41.3835 20.6161H46.5755ZM35.5004 16.7645C36.5185 16.3203 37.1984 16.0243 37.7244 15.8239C38.2531 15.6224 38.4527 15.5874 38.5159 15.5808L37.9727 10.4173C37.2379 10.4946 36.5412 10.7186 35.8757 10.9722C35.2075 11.2268 34.3953 11.582 33.4239 12.0059L35.5004 16.7645ZM46.2122 15.8116C45.0954 12.2848 41.6518 10.0303 37.9727 10.4173L38.5159 15.5808C39.7423 15.4518 40.8901 16.2033 41.2624 17.3789L46.2122 15.8116ZM20.6155 31.7577C20.6155 29.2282 20.619 27.5354 20.7597 26.2261C20.8937 24.9792 21.1327 24.3205 21.4637 23.815L17.1198 20.9711C16.1785 22.4088 15.7815 23.9587 15.5974 25.6713C15.4201 27.3217 15.4235 29.3396 15.4235 31.7577H20.6155ZM26.3277 15.1024C24.1114 16.0695 22.2606 16.8734 20.8189 17.6959C19.3228 18.5496 18.0611 19.5334 17.1198 20.9711L21.4637 23.815C21.7946 23.3095 22.3027 22.827 23.392 22.2055C24.5357 21.5529 26.0858 20.8727 28.4042 19.861L26.3277 15.1024Z" fill="white"/>
<path d="M8.53333 41.5048L10.6805 40.0458L8.53333 41.5048ZM11.9053 43.6962L12.3665 41.1415L11.9053 43.6962ZM27.8605 7.80703L28.1321 10.3888L27.8605 7.80703ZM33.3535 11.4032L30.8786 12.1869L33.3535 11.4032ZM18.0204 14.669L21.654 13.0835L19.5775 8.32482L15.9439 9.91035L18.0204 14.669ZM21.654 13.0835L25.1166 11.5725L23.0401 6.81384L19.5775 8.32482L21.654 13.0835ZM10.2317 33.7923V31.4721H5.03975V33.7923H10.2317ZM10.2317 31.4721V26.5657H5.03975V31.4721H10.2317ZM5.03975 33.7923C5.03975 35.8726 5.03719 37.6107 5.16267 38.9869C5.28839 40.3655 5.56614 41.7571 6.38613 42.9639L10.6805 40.0458C10.6029 39.9316 10.4319 39.5975 10.3332 38.5154C10.2343 37.4307 10.2317 35.973 10.2317 33.7923H5.03975ZM18.2634 39.0118C16.2706 39.8975 14.9375 40.4872 13.9062 40.8373C12.8772 41.1866 12.5024 41.166 12.3665 41.1415L11.4441 46.2509C12.8799 46.5101 14.2644 46.1987 15.5752 45.7537C16.8837 45.3095 18.471 44.6012 20.372 43.7563L18.2634 39.0118ZM6.38613 42.9639C7.56211 44.6945 9.38502 45.8792 11.4441 46.2509L12.3665 41.1415C11.6802 41.0176 11.0725 40.6227 10.6805 40.0458L6.38613 42.9639ZM25.1166 11.5725C26.1347 11.1283 26.8146 10.8323 27.3406 10.6319C27.8694 10.4304 28.069 10.3954 28.1321 10.3888L27.5889 5.22528C26.8541 5.30258 26.1574 5.5266 25.4919 5.78018C24.8237 6.0348 24.0115 6.38996 23.0401 6.81384L25.1166 11.5725ZM36.1917 15.4241C36.1917 14.3643 36.1924 13.4778 36.1585 12.7635C36.1247 12.0522 36.0514 11.324 35.8284 10.6196L30.8786 12.1869C30.8977 12.2474 30.9455 12.4444 30.9723 13.0095C30.999 13.5718 30.9997 14.3133 30.9997 15.4241H36.1917ZM28.1321 10.3888C29.3585 10.2598 30.5063 11.0113 30.8786 12.1869L35.8284 10.6196C34.7116 7.09281 31.268 4.83827 27.5889 5.22528L28.1321 10.3888ZM15.9439 9.91035C13.7277 10.8775 11.8768 11.6813 10.4351 12.5039C8.939 13.3576 7.67732 14.3414 6.73604 15.7791L11.0799 18.623C11.4108 18.1175 11.9189 17.635 13.0082 17.0135C14.1519 16.3609 15.702 15.6807 18.0204 14.669L15.9439 9.91035ZM10.2317 26.5657C10.2317 24.0362 10.2352 22.3434 10.3759 21.0341C10.5099 19.7872 10.7489 19.1285 11.0799 18.623L6.73604 15.7791C5.79476 17.2168 5.39769 18.7667 5.21364 20.4793C5.03628 22.1297 5.03975 24.1476 5.03975 26.5657H10.2317Z" fill="white"/>
<path d="M30.3544 53.0854L28.7337 55.1134L30.3544 53.0854ZM45.0173 49.7104L43.979 47.3311L45.0173 49.7104ZM53.0915 44.7991L55.2634 46.221L53.0915 44.7991ZM52.8671 19.7074L51.0194 21.5309L52.8671 19.7074ZM51.0364 18.5089L50.1041 20.9316L51.0364 18.5089ZM51.7677 29.586V35.4345H56.9597V29.586H51.7677ZM43.979 47.3311L41.2089 48.5399L43.2854 53.2985L46.0555 52.0898L43.979 47.3311ZM38.7885 25.0529L42.422 23.4674L40.3455 18.7087L36.712 20.2943L38.7885 25.0529ZM30.9998 41.856V36.9496H25.8078V41.856H30.9998ZM41.2089 48.5399C38.1838 49.86 36.1577 50.7379 34.6128 51.1776C33.0985 51.6086 32.6105 51.4448 32.3853 51.3261L29.9643 55.9191C31.948 56.9647 34.0417 56.7384 36.0342 56.1713C37.996 55.6129 40.4017 54.5569 43.2854 53.2985L41.2089 48.5399ZM25.8078 41.856C25.8078 45.0024 25.8022 47.6296 26.075 49.651C26.352 51.704 26.982 53.7134 28.7337 55.1134L31.9751 51.0575C31.7762 50.8986 31.4309 50.5168 31.2203 48.9566C31.0055 47.3647 30.9998 45.1567 30.9998 41.856H25.8078ZM32.3853 51.3261C32.2404 51.2497 32.103 51.1598 31.9751 51.0575L28.7337 55.1134C29.1176 55.4202 29.5296 55.69 29.9643 55.9191L32.3853 51.3261ZM51.7677 35.4345C51.7677 37.964 51.7643 39.6568 51.6236 40.966C51.4896 42.213 51.2505 42.8716 50.9196 43.3771L55.2634 46.221C56.2047 44.7833 56.6018 43.2335 56.7858 41.5208C56.9632 39.8705 56.9597 37.8526 56.9597 35.4345H51.7677ZM46.0555 52.0898C48.2718 51.1227 50.1227 50.3188 51.5644 49.4962C53.0605 48.6425 54.3222 47.6588 55.2634 46.221L50.9196 43.3771C50.5887 43.8826 50.0806 44.3651 48.9913 44.9867C47.8476 45.6392 46.2974 46.3194 43.979 47.3311L46.0555 52.0898ZM56.9597 29.586C56.9597 26.865 56.9641 24.5918 56.7547 22.8202C56.5434 21.0317 56.0689 19.2559 54.7148 17.8839L51.0194 21.5309C51.162 21.6753 51.4358 22.0515 51.5986 23.4295C51.7634 24.8243 51.7677 26.7322 51.7677 29.586H56.9597ZM42.422 23.4674C45.0376 22.326 46.788 21.5669 48.1324 21.1601C49.4605 20.7583 49.9147 20.8588 50.1041 20.9316L51.9688 16.0861C50.1697 15.3937 48.3524 15.6691 46.6286 16.1907C44.9212 16.7074 42.8394 17.6205 40.3455 18.7087L42.422 23.4674ZM54.7148 17.8839C53.9376 17.0963 53.0015 16.4835 51.9688 16.0861L50.1041 20.9316C50.4483 21.0641 50.7604 21.2684 51.0194 21.5309L54.7148 17.8839ZM36.712 20.2943C34.4957 21.2614 32.6448 22.0652 31.2032 22.8878C29.7071 23.7415 28.4454 24.7253 27.5041 26.163L31.8479 29.0069C32.1789 28.5014 32.687 28.0189 33.7763 27.3974C34.92 26.7448 36.4701 26.0646 38.7885 25.0529L36.712 20.2943ZM30.9998 36.9496C30.9998 34.4201 31.0033 32.7273 31.144 31.418C31.278 30.1711 31.517 29.5124 31.8479 29.0069L27.5041 26.163C26.5628 27.6007 26.1658 29.1506 25.9817 30.8632C25.8044 32.5136 25.8078 34.5315 25.8078 36.9496H30.9998Z" fill="white"/>
</g>
<defs>
<clipPath id="clip0_957_21170">
<rect width="62.3038" height="62.3038" fill="white"/>
</clipPath>
</defs>
</svg>
