<svg width="100" height="100" viewBox="0 0 100 100" fill="none" xmlns="http://www.w3.org/2000/svg">
<path fill-rule="evenodd" clip-rule="evenodd" d="M12.1122 37.5241L35.4498 34.6031L47.2048 11.1025C48.3564 8.79918 51.6433 8.79918 52.7949 11.1025L64.5467 34.6031L87.8875 37.5241C90.345 37.8313 91.4421 40.7024 89.9525 42.5636L89.7096 42.8347L72.1717 60.3719L78.0504 86.8221C78.6267 89.4152 75.9344 91.4437 73.6403 90.3153L73.3436 90.15L49.9998 75.5563L26.6561 90.15C24.4035 91.5579 21.5934 89.696 21.8923 87.1569L21.9493 86.8221L27.8248 60.3719L10.2901 42.8347C8.5389 41.0835 9.43557 38.1436 11.754 37.589L12.1122 37.5241ZM59.7048 38.8975L49.9998 19.4875L40.2949 38.8975C39.8277 39.8321 38.9242 40.4713 37.8875 40.6009L19.228 42.9312L33.4596 57.1653C34.1206 57.8264 34.4461 58.7428 34.3618 59.6604L34.3004 60.0529L29.6655 80.8969L48.3436 69.225C49.2444 68.662 50.3604 68.5995 51.309 69.0373L51.6561 69.225L70.3311 80.8969L65.6993 60.0529C65.4965 59.1403 65.7139 58.1923 66.2776 57.4635L66.5401 57.1653L80.7686 42.9312L62.1122 40.6009C61.2051 40.4875 60.4 39.9839 59.8998 39.2337L59.7048 38.8975Z" fill="white"/>
</svg>
