<svg width="63" height="63" viewBox="0 0 63 63" fill="none" xmlns="http://www.w3.org/2000/svg">
<g clip-path="url(#clip0_924_21128)">
<path d="M8.33001 53.1328L6.12173 54.4976L8.33001 53.1328ZM51.9048 46.8501L49.5829 48.0111L51.9048 46.8501ZM53.6696 53.1328L51.4614 51.768L53.6696 53.1328ZM30.9998 8.24899V10.845V8.24899ZM12.4168 48.0111L28.6779 15.4888L24.034 13.1669L7.77292 45.6892L12.4168 48.0111ZM33.3218 15.4888L49.5829 48.0111L54.2267 45.6892L37.9656 13.1669L33.3218 15.4888ZM47.2609 51.768H14.7387V56.96H47.2609V51.768ZM7.77292 45.6892C6.96985 47.2953 6.22845 48.7627 5.82838 49.9853C5.4164 51.2444 5.13889 52.9074 6.12173 54.4976L10.5383 51.768C10.7602 52.1271 10.5232 52.3326 10.7629 51.6C11.0145 50.831 11.536 49.7726 12.4168 48.0111L7.77292 45.6892ZM14.7387 51.768C12.7692 51.768 11.5894 51.7611 10.7891 51.6423C10.0266 51.5291 10.3164 51.409 10.5383 51.768L6.12173 54.4976C7.10457 56.0879 8.7161 56.5834 10.0265 56.778C11.299 56.9669 12.943 56.96 14.7387 56.96V51.768ZM49.5829 48.0111C50.4636 49.7726 50.9851 50.831 51.2367 51.6C51.4765 52.3326 51.2394 52.1271 51.4614 51.768L55.8779 54.4976C56.8608 52.9074 56.5832 51.2444 56.1713 49.9853C55.7712 48.7627 55.0298 47.2953 54.2267 45.6892L49.5829 48.0111ZM47.2609 56.96C49.0567 56.96 50.7007 56.9669 51.9732 56.778C53.2836 56.5834 54.8951 56.0879 55.8779 54.4976L51.4614 51.768C51.6833 51.409 51.973 51.5291 51.2106 51.6423C50.4103 51.7611 49.2304 51.768 47.2609 51.768V56.96ZM28.6779 15.4888C29.7305 13.3835 30.3931 12.0737 30.9649 11.2545C31.5476 10.4195 31.525 10.845 30.9998 10.845L30.9998 5.65299C28.8703 5.65299 27.5388 7.09158 26.7073 8.28293C25.8649 9.48996 25.0077 11.2196 24.034 13.1669L28.6779 15.4888ZM37.9656 13.1669C36.992 11.2196 36.1348 9.48996 35.2923 8.28293C34.4608 7.09158 33.1294 5.65299 30.9998 5.65299V10.845C30.4747 10.845 30.452 10.4195 31.0348 11.2545C31.6066 12.0737 32.2691 13.3835 33.3218 15.4888L37.9656 13.1669Z" fill="#344675"/>
</g>
<defs>
<clipPath id="clip0_924_21128">
<rect width="62.3038" height="62.3038" fill="white"/>
</clipPath>
</defs>
</svg>
