<svg width="1920" height="240" viewBox="0 0 1920 240" xmlns="http://www.w3.org/2000/svg"><path d="M 0,240 C 0,240 0,80 0,80 C 25.875184094256255,90.85069955817379 51.75036818851251,101.70139911634757 120,101 C 188.2496318114875,100.29860088365243 298.8737113402062,88.04510309278349 447,80 C 595.1262886597938,71.95489690721651 780.7547864506628,68.11818851251843 922,78 C 1063.2452135493372,87.88181148748157 1160.1071428571427,111.48214285714285 1204,106 C 1247.8928571428573,100.51785714285715 1238.8166421207657,65.95324005891015 1280,63 C 1321.1833578792343,60.04675994108984 1412.626288659794,88.7048969072165 1556,97 C 1699.373711340206,105.2951030927835 1894.678203240059,93.22717231222387 1964,87 C 2033.321796759941,80.77282768777613 1976.6608983799706,80.38641384388806 1920,80 C 1920,80 1920,240 1920,240 Z" fill="#ffffff" opacity="0.6"/><path d="M 0,240 C 0,240 0,160 0,160 C 90.41991899852727,168.49742268041237 180.83983799705453,176.99484536082474 246,173 C 311.16016200294547,169.00515463917526 351.0605670103092,152.5180412371134 439,141 C 526.9394329896908,129.4819587628866 662.9178939617085,122.93298969072163 745,138 C 827.0821060382915,153.06701030927837 855.2678571428571,189.75000000000003 987,189 C 1118.732142857143,188.24999999999997 1354.0106774668632,150.06701030927832 1433,145 C 1511.9893225331368,139.93298969072168 1434.6894329896907,167.98195876288662 1523,174 C 1611.3105670103093,180.01804123711338 1865.2315905743744,164.00515463917526 1959,158 C 2052.7684094256256,151.99484536082474 1986.3842047128128,155.99742268041237 1920,160 C 1920,160 1920,240 1920,240 Z" fill="#ffffff" opacity="1"/></svg>