<svg width="63" height="63" viewBox="0 0 63 63" fill="none" xmlns="http://www.w3.org/2000/svg">
<g clip-path="url(#clip0_915_21039)">
<path d="M14.1258 30.7642C14.1258 29.3304 12.9635 28.1682 11.5298 28.1682C10.0961 28.1682 8.93379 29.3304 8.93379 30.7642H14.1258ZM50.4697 28.4042L53.0657 28.4042V25.8082H50.4697V28.4042ZM8.93379 54.3641C8.93379 55.7978 10.0961 56.9601 11.5298 56.9601C12.9635 56.9601 14.1258 55.7978 14.1258 54.3641H8.93379ZM23.2117 28.4042V25.8082H20.6158L20.6158 28.4042L23.2117 28.4042ZM24.7325 52.8434L22.8968 54.6791L24.7325 52.8434ZM48.949 52.8434L47.1133 51.0078L48.949 52.8434ZM47.8737 28.4042L47.8737 43.9801L53.0657 43.9801L53.0657 28.4042L47.8737 28.4042ZM14.1258 54.3641V30.7642H8.93379V54.3641H14.1258ZM40.0857 51.7681H33.5957V56.9601H40.0857V51.7681ZM25.8077 43.9801L25.8077 28.4042L20.6158 28.4042L20.6158 43.9801L25.8077 43.9801ZM23.2117 31.0002H50.4697V25.8082H23.2117V31.0002ZM33.5957 51.7681C31.0748 51.7681 29.4453 51.7626 28.2446 51.6012C27.1186 51.4498 26.7657 51.2054 26.5681 51.0078L22.8968 54.6791C24.2199 56.0021 25.8511 56.5181 27.5528 56.7469C29.1798 56.9656 31.2216 56.9601 33.5957 56.9601V51.7681ZM20.6158 43.9801C20.6158 46.3543 20.6102 48.396 20.829 50.0231C21.0578 51.7248 21.5737 53.356 22.8968 54.6791L26.5681 51.0078C26.3705 50.8101 26.1261 50.4572 25.9747 49.3312C25.8133 48.1306 25.8077 46.501 25.8077 43.9801L20.6158 43.9801ZM47.8737 43.9801C47.8737 46.5011 47.8682 48.1306 47.7068 49.3312C47.5554 50.4572 47.311 50.8101 47.1133 51.0078L50.7846 54.6791C52.1077 53.356 52.6237 51.7248 52.8524 50.0231C53.0712 48.396 53.0657 46.3543 53.0657 43.9801L47.8737 43.9801ZM40.0857 56.9601C42.4598 56.9601 44.5016 56.9656 46.1286 56.7469C47.8304 56.5181 49.4616 56.0021 50.7846 54.6791L47.1133 51.0078C46.9157 51.2054 46.5628 51.4498 45.4368 51.6012C44.2362 51.7626 42.6066 51.7681 40.0857 51.7681V56.9601Z" fill="#344675"/>
<path d="M46.5556 7.63623H15.4438C14.1745 7.63623 13.5398 7.63623 13.0411 7.96242C12.5423 8.28861 12.2879 8.87006 11.7792 10.033L7.97111 18.7371C7.80403 19.119 7.72048 19.3099 7.67811 19.5125C7.63574 19.715 7.63574 19.9235 7.63574 20.3403V24.4042C7.63574 26.2898 7.63574 27.2326 8.22153 27.8184C8.80732 28.4042 9.75012 28.4042 11.6357 28.4042H50.3636C52.2492 28.4042 53.192 28.4042 53.7778 27.8184C54.3636 27.2326 54.3636 26.2898 54.3636 24.4042V20.3403C54.3636 19.9235 54.3636 19.715 54.3212 19.5125C54.2789 19.31 54.1953 19.119 54.0283 18.7372L54.0282 18.7371L50.2202 10.033C49.7114 8.87006 49.457 8.28861 48.9583 7.96242C48.4595 7.63623 47.8249 7.63623 46.5556 7.63623Z" stroke="#344675" stroke-width="5.19199" stroke-linecap="round" stroke-linejoin="round"/>
<path d="M30.9997 28.4042V20.6162M18.0198 28.4042V20.6162M43.9797 28.4042V20.6162" stroke="#344675" stroke-width="5.19199" stroke-linecap="round" stroke-linejoin="round"/>
</g>
<defs>
<clipPath id="clip0_915_21039">
<rect width="62.3038" height="62.3038" fill="white"/>
</clipPath>
</defs>
</svg>
